HIERARCHY
ROOT hip
{
	OFFSET 0.000000 0.000000 0.000000
	CHANNELS 6 Xposition Yposition Zposition Zrotation Yrotation Xrotation 
	JOINT lhipjoint
	{
		OFFSET 0.000000 0.000000 0.000000
		CHANNELS 3 Zrotation Yrotation Xrotation
		JOINT lfemur
		{
			OFFSET 1.363060 -1.794630 0.839290
			CHANNELS 3 Zrotation Yrotation Xrotation
			JOINT ltibia
			{
				OFFSET 2.448110 -6.726130 0.000000
				CHANNELS 3 Zrotation Yrotation Xrotation
				JOINT lfoot
				{
					OFFSET 2.562200 -7.039590 0.000000
					CHANNELS 3 Zrotation Yrotation Xrotation
					JOINT ltoes
					{
						OFFSET 0.157640 -0.433110 2.322550
						CHANNELS 3 Zrotation Yrotation Xrotation
						End Site
						{
							OFFSET 0.000000 0.000000 0.000000
						}
					}
				}
			}
		}
	}
	JOINT rhipjoint
	{
		OFFSET 0.000000 0.000000 0.000000
		CHANNELS 3 Zrotation Yrotation Xrotation
		JOINT rfemur
		{
			OFFSET -1.305520 -1.794630 0.839290
			CHANNELS 3 Zrotation Yrotation Xrotation
			JOINT rtibia
			{
				OFFSET -2.542530 -6.985550 0.000000
				CHANNELS 3 Zrotation Yrotation Xrotation
				JOINT rfoot
				{
					OFFSET -2.568260 -7.056230 0.000000
					CHANNELS 3 Zrotation Yrotation Xrotation
					JOINT rtoes
					{
						OFFSET -0.164730 -0.452590 2.363150
						CHANNELS 3 Zrotation Yrotation Xrotation
						End Site
						{
							OFFSET 0.000000 0.000000 0.000000
						}
					}
				}
			}
		}
	}
	JOINT lowerback
	{
		OFFSET 0.000000 0.000000 0.000000
		CHANNELS 3 Zrotation Yrotation Xrotation
		JOINT upperback
		{
			OFFSET 0.028270 2.035590 -0.193380
			CHANNELS 3 Zrotation Yrotation Xrotation
			JOINT thorax
			{
				OFFSET 0.056720 2.048850 -0.042750
				CHANNELS 3 Zrotation Yrotation Xrotation
				JOINT lowerneck
				{
					OFFSET 0.000000 0.000000 0.000000
					CHANNELS 3 Zrotation Yrotation Xrotation
					JOINT upperneck
					{
						OFFSET -0.054170 1.746240 0.172020
						CHANNELS 3 Zrotation Yrotation Xrotation
						JOINT head
						{
							OFFSET 0.104070 1.761360 -0.123970
							CHANNELS 3 Zrotation Yrotation Xrotation
							End Site
							{
								OFFSET 0.000000 0.000000 0.000000
							}
						}
					}
				}
				JOINT lclavicle
				{
					OFFSET 0.000000 0.000000 0.000000
					CHANNELS 3 Zrotation Yrotation Xrotation
					JOINT lhumerus
					{
						OFFSET 3.362410 1.200890 -0.311210
						CHANNELS 3 Zrotation Yrotation Xrotation
						JOINT lradius
						{
							OFFSET 4.983000 -0.000000 -0.000000
							CHANNELS 3 Zrotation Yrotation Xrotation
							JOINT lwrist
							{
								OFFSET 3.483560 -0.000000 -0.000000
								CHANNELS 3 Zrotation Yrotation Xrotation
								JOINT lhand
								{
									OFFSET 0.000000 0.000000 0.000000
									CHANNELS 3 Zrotation Yrotation Xrotation
									JOINT lfingers
									{
										OFFSET 0.715260 -0.000000 -0.000000
										CHANNELS 3 Zrotation Yrotation Xrotation
										End Site
										{
											OFFSET 0.000000 0.000000 0.000000
										}
									}
								}
								JOINT lthumb
								{
									OFFSET 0.000000 0.000000 0.000000
									CHANNELS 3 Zrotation Yrotation Xrotation
									End Site
									{
										OFFSET 0.000000 0.000000 0.000000
									}
								}
							}
						}
					}
				}
				JOINT rclavicle
				{
					OFFSET 0.000000 0.000000 0.000000
					CHANNELS 3 Zrotation Yrotation Xrotation
					JOINT rhumerus
					{
						OFFSET -3.136600 1.374050 -0.404650
						CHANNELS 3 Zrotation Yrotation Xrotation
						JOINT rradius
						{
							OFFSET -5.241900 -0.000000 -0.000000
							CHANNELS 3 Zrotation Yrotation Xrotation
							JOINT rwrist
							{
								OFFSET -3.444170 -0.000000 -0.000000
								CHANNELS 3 Zrotation Yrotation Xrotation
								JOINT rhand
								{
									OFFSET 0.000000 0.000000 0.000000
									CHANNELS 3 Zrotation Yrotation Xrotation
									JOINT rfingers
									{
										OFFSET -0.622530 -0.000000 -0.000000
										CHANNELS 3 Zrotation Yrotation Xrotation
										End Site
										{
											OFFSET 0.000000 0.000000 0.000000
										}
									}
								}
								JOINT rthumb
								{
									OFFSET 0.000000 0.000000 0.000000
									CHANNELS 3 Zrotation Yrotation Xrotation
									End Site
									{
										OFFSET 0.000000 0.000000 0.000000
									}
								}
							}
						}
					}
				}
			}
		}
	}
}
MOTION
Frames: 8
Frame Time: 0.008333
-14.633179 18.372646 5.302059 1.419506 22.477869 5.091761 7.326204 7.270118 2.667380 -0.698956 -1.802281 -7.965080 -1.035011 1.373328 7.740392 -4.418386 15.105654 13.087348 0.662100 -5.204100 -14.491700 -9.059914 -6.684574 2.349023 14.751259 15.377617 -15.442566 -2.595762 -9.921082 33.542641 -3.185565 8.783273 6.066474 -0.943700 6.187200 -17.328600 9.512204 -1.529593 -7.795524 1.038044 -2.860639 -1.516038 -4.025086 -1.056399 1.262985 0.263406 11.062238 7.760104 -1.407059 14.816612 5.996805 -5.082400 7.777800 -3.291700 6.520981 -1.850824 4.344060 -83.528244 0.982459 65.158998 16.133144 -34.512361 -3.050929 0.258042 0.556963 -12.428416 15.116320 -13.610214 -3.679700 -7.125000 0.000000 0.000000 -8.667100 15.486100 6.109600 -4.649410 2.902467 4.784156 70.686010 -3.929288 9.617237 7.413195 12.652568 -0.669045 -1.100062 0.030288 29.392965 -20.051811 12.111370 -4.362700 7.125000 0.000000 0.000000 5.673000 -16.564200 3.839300 
-14.528301 18.342373 5.262961 1.337410 22.632122 5.131341 7.339638 7.350400 2.691686 -0.462557 -1.477647 -7.265579 -1.188435 0.698277 6.025699 -4.426910 15.144951 13.436346 0.742700 -5.505300 -15.355500 -9.065399 -6.705233 2.371563 14.431210 15.519382 -15.513785 -2.613896 -9.965106 33.617388 -3.160835 8.624599 5.894222 -0.976600 6.290900 -17.630700 9.425580 -1.581340 -7.820131 1.051163 -2.925832 -1.525889 -3.903363 -1.097301 1.236575 0.172861 11.064901 7.700249 -1.314248 14.780886 5.939741 -5.006200 7.748000 -3.327500 6.504316 -1.884341 4.336085 -83.440261 0.901252 65.382639 16.326338 -34.699923 -3.105288 0.263467 0.575068 -12.724279 15.276333 -13.614494 -3.723700 -7.125000 0.000000 0.000000 -8.566100 15.452700 6.043000 -4.645635 2.882956 4.770745 70.609058 -3.944080 9.904857 7.420721 12.595564 -0.663150 -1.103056 0.016961 29.122877 -20.191201 11.901625 -4.329300 7.125000 0.000000 0.000000 5.570600 -16.762500 3.745200 
-14.419935 18.312203 5.221092 1.262412 22.821857 5.158729 7.363032 7.480381 2.719049 -0.204971 -0.988111 -6.097117 -1.399216 -0.334658 3.416131 -4.522065 15.427342 14.005896 0.759200 -5.564700 -15.526400 -9.074864 -6.743560 2.399580 14.094925 15.637571 -15.546988 -2.623625 -9.996480 33.647956 -3.129202 8.441386 5.739063 -1.020500 6.426600 -18.027200 9.335779 -1.638110 -7.821756 1.064751 -2.991755 -1.533142 -3.788814 -1.141512 1.202658 0.101866 11.054030 7.680195 -1.230182 14.728850 5.843992 -4.942200 7.707000 -3.400500 6.478465 -1.921830 4.334531 -83.308371 0.826974 65.631549 16.591249 -34.953416 -3.182639 0.265589 0.599438 -13.100655 15.468568 -13.530992 -3.755400 -7.125000 0.000000 0.000000 -8.442200 15.499500 5.945000 -4.637693 2.859959 4.762318 70.522365 -3.955767 10.159863 7.428559 12.526169 -0.657651 -1.107085 0.001162 28.880739 -20.387003 11.633496 -4.289600 7.125000 0.000000 0.000000 5.427400 -17.013900 3.618100 
-14.307771 18.281622 5.177684 1.187774 23.000940 5.163934 7.387806 7.549343 2.743375 0.007962 -0.719455 -5.370378 -1.516962 -1.012291 1.742746 -4.531214 15.422131 14.095392 0.686100 -5.295700 -14.753800 -9.082168 -6.764409 2.415620 13.752093 15.746885 -15.513819 -2.626414 -10.002636 33.627220 -3.093520 8.253492 5.611797 -1.043300 6.496000 -18.230400 9.254677 -1.681577 -7.785824 1.073510 -3.037543 -1.541006 -3.725777 -1.172470 1.154814 0.115691 11.025381 7.644496 -1.149492 14.663811 5.768548 -4.900400 7.659700 -3.438800 6.464437 -1.958520 4.332435 -83.191018 0.794330 65.701069 16.841864 -35.203553 -3.263620 0.267516 0.622150 -13.303404 15.663963 -13.431583 -3.783700 -7.125000 0.000000 0.000000 -8.314700 15.562700 5.841700 -4.630296 2.852627 4.752384 70.497403 -3.987315 10.383496 7.442218 12.466171 -0.652848 -1.112629 -0.019496 28.601347 -20.561419 11.294498 -4.219900 7.125000 0.000000 0.000000 5.296800 -17.337900 3.492700 
-14.190066 18.249912 5.131813 1.106294 23.141422 5.152881 7.394378 7.523722 2.760658 0.108217 -0.796289 -5.464616 -1.513993 -1.034249 1.737730 -4.397104 14.973929 13.620382 0.546800 -4.737400 -13.161200 -9.083065 -6.758384 2.412044 13.400346 15.808992 -15.421151 -2.622007 -9.980491 33.550562 -3.062735 8.099097 5.496760 -1.073400 6.585900 -18.494300 9.185987 -1.705651 -7.732002 1.080920 -3.064180 -1.545612 -3.662416 -1.186591 1.115556 0.157313 10.981663 7.617471 -1.079482 14.580611 5.669091 -4.876600 7.601100 -3.491900 6.453937 -1.985986 4.334665 -83.083828 0.772753 65.749590 17.117638 -35.485469 -3.354765 0.267675 0.647689 -13.490625 15.871156 -13.291574 -3.805000 -7.125000 0.000000 0.000000 -8.177900 15.662900 5.725800 -4.613681 2.846805 4.746604 70.460799 -4.007944 10.580060 7.444349 12.408778 -0.647342 -1.115136 -0.040886 28.343817 -20.696072 10.941782 -4.134500 7.125000 0.000000 0.000000 5.191400 -17.681400 3.383400 
-14.067538 18.218511 5.082761 1.067699 23.290488 5.119991 7.393965 7.501729 2.772366 0.116364 -0.876076 -5.509503 -1.517149 -1.052644 1.734904 -4.284845 14.619305 13.290952 0.435600 -4.235300 -11.739700 -9.080008 -6.757504 2.407781 12.991786 15.801311 -15.288509 -2.610084 -9.940081 33.422522 -3.017967 7.891820 5.403866 -1.151900 6.814500 -19.166800 9.070877 -1.729786 -7.615335 1.086148 -3.081082 -1.549792 -3.615353 -1.198026 1.063663 0.271411 10.917099 7.562025 -1.019885 14.477169 5.587896 -4.880000 7.532800 -3.504000 6.456107 -2.018004 4.332687 -82.931208 0.710183 65.929540 17.385634 -35.737127 -3.440326 0.270147 0.674551 -13.848579 16.137113 -13.182862 -3.847900 -7.125000 0.000000 0.000000 -8.003900 15.726600 5.590400 -4.592104 2.847564 4.738907 70.483146 -4.036959 10.757556 7.418574 12.387192 -0.644187 -1.118143 -0.069136 28.064754 -20.799742 10.519179 -4.018300 7.125000 0.000000 0.000000 5.104800 -18.095700 3.279800 
-13.938545 18.185467 5.029911 1.008725 23.453526 5.057869 7.387867 7.485554 2.780861 0.082420 -0.964249 -5.543312 -1.523138 -1.062737 1.730042 -4.218507 14.418145 13.116720 0.354400 -3.824800 -10.584200 -9.076224 -6.760109 2.403204 12.584939 15.743817 -15.119020 -2.589985 -9.881123 33.246142 -2.975238 7.701652 5.329180 -1.240300 7.061800 -19.898500 8.997936 -1.753173 -7.455878 1.091248 -3.092963 -1.555099 -3.593161 -1.207686 0.983210 0.430662 10.841564 7.526652 -0.966016 14.363059 5.493396 -4.898400 7.457300 -3.520600 6.471343 -2.058024 4.332296 -82.842862 0.647491 66.029036 17.610338 -35.947824 -3.513152 0.271814 0.699204 -14.118636 16.334122 -13.084238 -3.875400 -7.125000 0.000000 0.000000 -7.875500 15.787500 5.488500 -4.574530 2.858227 4.731978 70.530319 -4.055980 10.915093 7.408805 12.354485 -0.641923 -1.124039 -0.097187 27.787325 -20.925176 10.093957 -3.903800 7.125000 0.000000 0.000000 5.005200 -18.510200 3.169300 
-13.805858 18.152321 4.972957 0.952987 23.631636 4.958487 7.376262 7.473549 2.786533 -0.024605 -1.064533 -5.537809 -1.534093 -1.069347 1.726068 -4.193579 14.336604 13.025462 0.339700 -3.745200 -10.360800 -9.070156 -6.766651 2.398482 12.165390 15.647713 -14.898868 -2.564155 -9.805311 33.026753 -2.920058 7.466321 5.250210 -1.388900 7.456600 -21.075200 8.921717 -1.782441 -7.226092 1.094568 -3.103269 -1.562412 -3.591496 -1.218123 0.862094 0.657416 10.759625 7.504518 -0.917253 14.243186 5.403219 -4.941000 7.378100 -3.518900 6.507659 -2.112038 4.330724 -82.837484 0.568473 66.028227 17.711245 -36.038596 -3.547478 0.277265 0.717346 -14.319880 16.459508 -13.088399 -3.910500 -7.125000 0.000000 0.000000 -7.797900 15.756200 5.438700 -4.555114 2.883759 4.726413 70.586352 -4.116006 11.069868 7.378620 12.353212 -0.640214 -1.126892 -0.127272 27.497912 -20.946845 9.689571 -3.773800 7.125000 0.000000 0.000000 4.977300 -18.911800 3.107100 
